Exact Audio Copy V0.99 prebeta 4 from 23. January 2008

EAC 抓取日志文件从18. 二月 2013, 20:39

Various / 名人百集 五、六十年代歌坛名人

使用驱动器  ：TEAC    CD-W54E   Adapter: 5  ID: 0

读取模式     : 保护
使用精确流   : 是
废除音频缓冲 : 是
使用 C2 指针 : 否

读取偏移校正                   : 0
读取 Lead-In 和 Lead-Out       : 否
用静音填充抓取中丢失偏移的采样 : 是
去除首尾静音块                 : 否
在 CRC 计算中使用了空样本      : 否
已用接口                       : Win NT 及 2000 本地 Win32 接口

所用输出格式 : 内部 WAV 函数
样本格式     : 44.100 Hz;16 Bit;立体声


被抓轨 CD 的 TOC

     音轨 |   开始   |   长度   | 起始扇区 | 结尾扇区 
    --------------------------------------------------
       1  |  0:00.00 |  3:02.17 |       0  |   13666  
       2  |  3:02.17 |  3:12.33 |   13667  |   28099  
       3  |  6:14.50 |  3:19.35 |   28100  |   43059  
       4  |  9:34.10 |  2:52.02 |   43060  |   55961  
       5  | 12:26.12 |  1:46.15 |   55962  |   63926  
       6  | 14:12.27 |  2:14.08 |   63927  |   73984  
       7  | 16:26.35 |  1:50.05 |   73985  |   82239  
       8  | 18:16.40 |  3:14.65 |   82240  |   96854  
       9  | 21:31.30 |  2:17.17 |   96855  |  107146  
      10  | 23:48.47 |  3:26.50 |  107147  |  122646  
      11  | 27:15.22 |  3:44.45 |  122647  |  139491  
      12  | 30:59.67 |  4:30.20 |  139492  |  159761  
      13  | 35:30.12 |  3:35.70 |  159762  |  175956  
      14  | 39:06.07 |  3:34.30 |  175957  |  192036  
      15  | 42:40.37 |  4:31.33 |  192037  |  212394  
      16  | 47:11.70 |  2:50.55 |  212395  |  225199  
      17  | 50:02.50 |  3:32.50 |  225200  |  241149  
      18  | 53:35.25 |  3:14.60 |  241150  |  255759  
      19  | 56:50.10 |  4:26.15 |  255760  |  275724  


范围状态及错误

已选择范围

     文件名 D:\行板如歌原抓\名人百集 五、六十年代歌坛名人.wav

     峰值电平 100.0 %
     范围质量 100.0 %
     复制 CRC 66529C4F
     复制成功

没有错误发生

状态报告结尾
